v -10.000000 -10.000000 -0.300000
v 10.000000 -10.000000 -0.300000
v 10.000000 10.000000 -0.300000
v -10.000000 10.000000 -0.300000
v -10.000000 -10.000000 0.300000
v 10.000000 -10.000000 0.300000
v 10.000000 10.000000 0.300000
v -10.000000 10.000000 0.300000
vn -0.577350 -0.577350 -0.577350
vn 0.577350 -0.577350 -0.577350
vn 0.577350 0.577350 -0.577350
vn -0.577350 0.577350 -0.577350
vn -0.577350 -0.577350 0.577350
vn 0.577350 -0.577350 0.577350
vn 0.577350 0.577350 0.577350
vn -0.577350 0.577350 0.577350
f 1//1 3//3 2//2
f 1//1 4//4 3//3
f 5//5 6//6 7//7
f 5//5 7//7 8//8
f 1//1 5//5 8//8
f 1//1 8//8 4//4
f 2//2 3//3 7//7
f 2//2 7//7 6//6
f 1//1 2//2 6//6
f 1//1 6//6 5//5
f 3//3 4//4 8//8
f 3//3 8//8 7//7
